<svg id="Layer_1" data-name="Layer 1" xmlns="http://www.w3.org/2000/svg" viewBox="0 0 500 500"><defs><style>.cls-1{fill:none;stroke:#e6e6e6;stroke-miterlimit:10;stroke-width:7.19px;}.cls-2{fill:#fff;}.cls-3{fill:#e6e6e6;opacity:0.4;}</style></defs><title>favicon</title><rect width="500" height="500" rx="250"/><line class="cls-1" x1="416.69" y1="353.5" x2="375.43" y2="336.66"/><line class="cls-1" x1="418.95" y1="365.28" x2="375.55" y2="386.4"/><ellipse class="cls-1" cx="368.9" cy="333.99" rx="7.43" ry="8.04" transform="translate(-54.71 72.86) rotate(-10.51)"/><ellipse class="cls-1" cx="425.67" cy="357.17" rx="9.49" ry="10.27" transform="translate(-57.99 83.6) rotate(-10.51)"/><ellipse class="cls-1" cx="367.87" cy="390.13" rx="11.24" ry="12.17" transform="translate(-64.97 73.61) rotate(-10.51)"/><line class="cls-1" x1="396.06" y1="345.08" x2="420.13" y2="311.07"/><ellipse class="cls-1" cx="425.39" cy="303.63" rx="9.49" ry="10.27" transform="translate(-48.23 82.65) rotate(-10.51)"/><path class="cls-2" d="M298.9,464.92c-5.18,1.09-9-.43-12.85-.94-2.8-.38-5.45-.83-7.83,1.25-1.67,1.47-3.8,1.29-5.72,1a143.06,143.06,0,0,1-37.7-11.3,47.88,47.88,0,0,0-9.09-3.13c-8-1.85-15.48-5.31-23.54-7.17-10.27-2.35-18.92-8.52-27.61-14.28-4.27-2.83-8.1-6-13.44-7.43-5.06-1.36-8.18-6.62-12.31-10-3.26-2.68-5.76-6.16-10.39-7.17-1.93-.42-3.51-2.83-5-4.52a345.27,345.27,0,0,1-50.24-71.13c-11.72-22.06-19-45.72-23.55-70.32C56.91,245.24,55.19,230.6,55.5,216c.33-16.43,1.36-32.88,6.89-48.82s10.38-32.11,19-46.69a165.78,165.78,0,0,1,39.94-46.29c14-11,28.75-20.41,45.18-27,13.94-5.54,28.27-10,43.45-11,10.84-.72,21.64-2.55,32.46-2.6,17.45-.06,34.23,4.28,50.76,9.64s31.21,14.13,46.5,21.86C352,69.94,362,74.38,376.43,90.85c3.6,3.51,5.38,8.15,8.78,11.67.48.5.82,1.18.18,1.56-4.43,2.63-.69,4.46.84,5.84,10.85,9.83,19.32,21.66,28.36,33a2.8,2.8,0,0,1,.75,1.63c-.7,10.71,6.92,18.08,11,26.79,5.91,12.64,12.39,25,15,38.84.84,4.47,2.86,8.72,3.21,13.17-7.55-1.28-7.21-7.28-8.43-12.44-4-16.76-11.5-31.82-21.7-45.68-8.53-11.58-15.81-24.06-25.87-34.54-19.59-20.41-43.06-35-69.27-44.83-27.15-10.19-54.42-8.16-81.21,2.42A107.34,107.34,0,0,0,212,103.62c-9.11,7-14.09,16.92-18.58,26.93-8.68,19.32-10,39.72-8.47,60.69,2.1,28.54,11.5,54.95,21.57,81.32a221.6,221.6,0,0,0,16.64,33.7c4.42,7.45,10.72,13.31,15.79,20.19,3.37,4.57,6.45,9.31,9.51,14.08,1.88,2.92.73,4.23-2.42,4.41-2.75.14-5.1-1.15-7.35-2.38-3.48-1.92-6.41-1.88-8.77,1.62a5.81,5.81,0,0,1-4.58,2.67c-3.49.27-3.58,2.2-2.36,4.78a19.55,19.55,0,0,0,1.84,3.69c4.73,6.08,2.5,11.66-1.47,16.77-3.5,4.5-8.5,4.87-13.78,3.65-12.84-2.95-23.7-9.63-33.78-17.77-4.05-3.27-7.85-6.84-11.84-10.17-3.48-2.91-6-2.37-8.08,1.62-3.88,7.51-3.08,15.79-3.73,23.82-.12,1.44,1,2.52,1.85,3.61A239.64,239.64,0,0,0,190.74,414a263.75,263.75,0,0,0,46.4,30.44A194.54,194.54,0,0,0,271.72,458c8.1,2.32,16.19,4.57,24.59,5.47C296.84,463.55,297.32,464,298.9,464.92ZM96,163.12l.65.53c-1.36,2.17-2.79,4.31-4.06,6.53a1.75,1.75,0,0,0,.38,2.47c.79.5,1.41-.21,2-.7,1-.84,2.06-2.42,3.48-1.46s.25,2.51-.16,3.76c-.34,1.05-.75,2.21-.09,3.11,1.72,2.39.43,4.59.08,7-.89,6.13-1.79,12.12-.11,18.51,2.65,10.09,9.28,18.41,11.73,28.5.24,1,.86,2.12,2.11,2.17s1.72-1.16,2.16-2.11a69,69,0,0,1,12.18-18.33c5.41-5.77,7.41-12.7,8.49-19.94,1-6.78.92-13.73,1.26-20.61.05-1,.27-2.42-1-2.8-1.5-.46-2,1-2.74,2-4.61,5.74-7.17,12.44-9.08,19.45a34.27,34.27,0,0,1-1.55,3.79c-4.29-2.08-3.92,2.28-5.43,4-1.27,1.44-2.29,4.42-4.18,3.48s.65-3,.85-4.71c.16-1.44,2.21-3.73-.41-4.1-4.42-.64-2.1-3-1.41-4.51a174.66,174.66,0,0,1,10.11-18.57c1.8-2.9,3.89-5.7,5.21-10.42-5.09,3.51-10.08,3.87-15.35,6.25.84-3.07,2.55-4.45,3.63-6.19.53-.86,2.12-2.25.11-2.85-3.77-1.14-1.57-3-.65-4.41,2-3.11,4.2-6,6.24-9.11.67-1,2.24-2.63-.25-3.1-5.17-1-1.8-2.94-.56-4.35,3-3.41,6.53-6.32,9-11-4.76.2-8.45.52-10.92,4.91-2.13,3.77-4.28,7.38-4.89,11.75a12.11,12.11,0,0,1-2.5,5.88c-1.64,2.08-3.17,1.76-4-.67a31.68,31.68,0,0,1-.68-4.53c-.37-2.05-1.21-3.91-3.34-4.59-2.57-.82-11.47,5.5-11.79,8.25-.11.92-.18,1.93.73,2.48s1.7-.17,2.34-.83c.92-.94,1.19-2.92,3.59-2.2-1.35,3.1-3.77,5.07-5.44,7.56-.93,1.39-2.1,3.26-.52,4.55s2.17-1,3.21-1.74c.56-.38,1-1.26,2.17-.15-1.41,1.91-2.87,3.84-4.28,5.81-.72,1-1.55,2.26-.42,3.29s1.86-.32,2.66-1C95.06,163.8,95.55,163.47,96,163.12ZM217.37,90.65a27.47,27.47,0,0,0,17.25-5.88c.59-.49,1.36-.94,1.11-1.8a2,2,0,0,0-2.21-1.25c-5.89.14-11.92-.43-17.1,3.39-1.9,1.4-5.75,2.15-5.21,4.34C211.84,92,215.49,90.06,217.37,90.65ZM173.74,337.56c-.6.38-1.29.58-1.54,1-.72,1.3.4,1.91,1.23,2.56,10.3,8,21.82,13.84,33.66,19.12.68.3,1.53.82,2.07,0,.65-1-.11-1.82-.9-2.23-2-1.07-4.13-1.93-6.17-3a167.28,167.28,0,0,1-25.64-15.69C175.61,338.76,174.71,338.21,173.74,337.56ZM145.66,77.9c-2.85,2.86-4.28,9.75-3.06,12.32.6,1.24,1.54,2.21,2.87,1.64,6.08-2.61,12.41-4.77,17.54-9.43-4.29-.59-8.37-.43-12.19,1.79-1.29.75-2.63,2-4.2.9s-1.11-2.7-1-4.24C145.72,80.16,145.66,79.42,145.66,77.9Zm-27.31,167a13.61,13.61,0,0,0,2.38-1.2c4.27-3.25,4.32-8.29,5-12.88.32-2.09-1.57-1.81-2.87-.89-2.63,1.86-5.19,3.81-7.8,5.69a2.77,2.77,0,0,0-.87,4C115.31,241.5,115.54,244.12,118.35,244.87ZM93,133.89a15.47,15.47,0,0,1,8.64-7.42c2.94-1,3.44-3.66,4-6.22.22-1,.45-2.28-.59-3-1.35-.88-2.32.25-3.14,1.1-2.62,2.69-4.62,5.9-7.69,8.27C92.6,127.92,91.65,130.35,93,133.89Z"/><path class="cls-3" d="M464,420.27c-.69-.87-1.35-1.75-2-2.64.8,1.78,1.67,3.52,2.63,5.21.23.39.48.89.78,1.38l.95-1.32C465.69,422,464.63,421,464,420.27Z"/></svg>